HIERARCHY
ROOT Hips
{
  OFFSET 43.0842 91.1655 101.099
  CHANNELS 6 Xposition Yposition Zposition Zrotation Xrotation Yrotation
  JOINT LeftUpLeg
  {
    OFFSET 8.64259 1.95398 -2.38835
    CHANNELS 3 Zrotation Xrotation Yrotation
    JOINT LeftLeg
    {
      OFFSET 43.7702 0 0
      CHANNELS 3 Zrotation Xrotation Yrotation
      JOINT LeftFoot
      {
        OFFSET 40.6238 0 0
        CHANNELS 3 Zrotation Xrotation Yrotation
        JOINT LeftToeBase
        {
          OFFSET 12.7242 0 0
          CHANNELS 3 Zrotation Xrotation Yrotation
          End Site
          {
            OFFSET 0 0 0
          }
        }
      }
    }
  }
  JOINT RightUpLeg
  {
    OFFSET -8.2249 1.95398 -2.59336
    CHANNELS 3 Zrotation Xrotation Yrotation
    JOINT RightLeg
    {
      OFFSET 43.5653 0 0
      CHANNELS 3 Zrotation Xrotation Yrotation
      JOINT RightFoot
      {
        OFFSET 40.6238 0 0
        CHANNELS 3 Zrotation Xrotation Yrotation
        JOINT RightToeBase
        {
          OFFSET 12.7242 0 0
          CHANNELS 3 Zrotation Xrotation Yrotation
          End Site
          {
            OFFSET 0 0 0
          }
        }
      }
    }
  }
  JOINT Spine
  {
    OFFSET 0.165834 0.87714 6.61349
    CHANNELS 3 Zrotation Xrotation Yrotation
    JOINT Spine1
    {
      OFFSET 7.38963 1.71661e-005 0
      CHANNELS 3 Zrotation Xrotation Yrotation
      JOINT Spine2
      {
        OFFSET 11.9445 1.14441e-005 0
        CHANNELS 3 Zrotation Xrotation Yrotation
        JOINT Spine3
        {
          OFFSET 14.7254 4.19617e-005 0
          CHANNELS 3 Zrotation Xrotation Yrotation
          JOINT Spine4
          {
            OFFSET 10.9679 0 0
            CHANNELS 3 Zrotation Xrotation Yrotation
            JOINT RightShoulder
            {
              OFFSET 2.46616 -1.6653 3.69651
              CHANNELS 3 Zrotation Xrotation Yrotation
              JOINT RightArm
              {
                OFFSET 13.0012 0 0
                CHANNELS 3 Zrotation Xrotation Yrotation
                JOINT RightForeArm
                {
                  OFFSET 28.7848 1.52588e-005 0
                  CHANNELS 3 Zrotation Xrotation Yrotation
                  JOINT RightHand
                  {
                    OFFSET 26.5688 1.52588e-005 0
                    CHANNELS 3 Zrotation Xrotation Yrotation
                    End Site
                    {
                      OFFSET 0 0 0
                    }
                  }
                }
              }
            }
            JOINT LeftShoulder
            {
              OFFSET 2.38034 -1.29275 -3.7523
              CHANNELS 3 Zrotation Xrotation Yrotation
              JOINT LeftArm
              {
                OFFSET 16.3182 6.10351e-005 0
                CHANNELS 3 Zrotation Xrotation Yrotation
                JOINT LeftForeArm
                {
                  OFFSET 27.0901 0 0
                  CHANNELS 3 Zrotation Xrotation Yrotation
                  JOINT LeftHand
                  {
                    OFFSET 24.5451 1.52588e-005 0
                    CHANNELS 3 Zrotation Xrotation Yrotation
                    End Site
                    {
                      OFFSET 0 0 0
                    }
                  }
                }
              }
            }
            JOINT Neck
            {
              OFFSET 5.0226 -0.0266342 0
              CHANNELS 3 Zrotation Xrotation Yrotation
              JOINT Head
              {
                OFFSET 6.69364 2.86102e-005 0
                CHANNELS 3 Zrotation Xrotation Yrotation
                End Site
                {
                  OFFSET 0 0 0
                }
              }
            }
          }
        }
      }
    }
  }
}
MOTION
Frames:	9
Frame Time:	0.0333333
118.925 90.8337 38.2028 88.9511 -9.68977 83.3306 -172.464 5.91583 104.202 -14.1109 3.87689 0.984814 55.3723 -7.89746 -15.4591 33.2751 2.79187 5.35051 175.626 33.1553 80.0499 -47.7516 -11.1537 -2.27639 60.4618 -0.440854 -3.24981 40.8142 -5.88218 -3.19795 -1.00726 7.36768 -89.4464 12.148 -1.74035 1.29644 0.477458 -1.68161 1.37178 -22.0649 -2.04949 0.713342 -2.05224 -2.04951 0.71334 92.5573 -51.3637 -96.645 -16.0572 6.58566 -18.6988 -18.84 26.8386 -41.8393 -9.97746 -1.60483 -1.25865 -92.5531 -43.4282 73.1246 13.1707 16.474 -81.1972 13.5144 9.80659 -88.2137 21.8289 2.64679 3.10463 -24.5842 -15.6514 -9.70159 9.0199 -18.058 -13.0649 
119.332 89.0923 39.9359 90.7613 -5.55391 83.8351 -171.979 8.10913 106.302 -18.6636 1.44266 1.47986 57.7704 -6.02271 -21.5001 34.6305 5.36617 3.99127 174.887 32.0675 80.8139 -52.9552 -17.6542 -2.6294 62.6783 -1.36696 -11.6579 41.3913 -6.06279 -3.83179 -0.807854 7.47747 -89.2306 11.9271 -1.24368 1.66974 0.255588 -1.169 1.72284 -22.2793 -1.68798 1.21881 -2.26663 -1.688 1.21881 91.8219 -52.7923 -97.4841 -17.4896 8.4607 -15.7355 -22.4527 23.8994 -39.0577 -10.3788 -1.73334 -2.14219 -92.5686 -44.195 73.3226 14.9086 16.7418 -82.217 13.9731 7.65776 -88.6334 15.8409 1.77381 1.03881 -26.7296 -17.004 -12.4074 7.67065 -20.0389 -16.018 
119.163 87.5226 41.2233 91.3174 -2.02029 85.8367 -171.503 12.2801 109.123 -22.9553 1.88675 1.54947 60.2952 -3.62085 -21.9817 35.8179 7.92984 1.8854 173.454 33.223 83.5882 -56.7404 -10.7151 -2.00853 63.9498 -3.07616 -10.4135 42.7873 -6.99102 -3.1583 -0.692958 7.55629 -89.2252 11.7662 -1.01416 1.65143 0.0945593 -0.940488 1.69444 -22.4383 -1.46357 1.27035 -2.42562 -1.46354 1.27035 91.5124 -54.7975 -97.5669 -18.598 11.2059 -14.5202 -23.0943 22.8234 -38.4351 -11.6349 -2.02195 -1.34646 -93.7354 -46.2308 72.0965 16.0561 16.4492 -82.4729 13.6232 6.17509 -90.062 15.6057 1.77663 -0.263479 -26.229 -18.3272 -15.3549 5.32536 -21.2835 -16.6003 
119.122 86.4146 42.1106 91.0894 0.513362 87.6719 -171.656 15.3074 111.252 -24.7086 2.50325 1.9061 60.7938 -3.22112 -19.7124 37.9494 11.5743 -0.665365 170.746 33.1323 85.8965 -57.1914 -7.66114 -0.380078 65.1234 -4.26156 -12.1925 45.1326 -8.8931 0.357958 -0.575106 7.55232 -89.3436 11.7729 -0.835326 1.39702 0.101472 -0.77306 1.43241 -22.4319 -1.21655 1.08142 -2.41923 -1.21657 1.08141 90.9005 -55.0222 -98.4103 -17.7638 15.1358 -13.1185 -24.8958 20.4812 -38.0448 -10.4369 -1.73697 -1.79593 -95.9019 -48.2517 69.4333 13.0053 15.6786 -80.5774 14.0071 6.74692 -92.7119 12.6831 1.37457 -0.352025 -25.9587 -19.5642 -16.0437 4.02898 -22.4493 -17.8154 
119.411 85.6852 42.7325 90.8105 2.6415 88.8272 -171.899 17.9623 112.848 -26.3481 3.00229 2.3109 61.1397 -2.38142 -18.7148 40.2654 14.8673 -2.65055 168.327 32.8179 87.3598 -57.586 -5.91043 1.02509 66.8499 -5.9506 -13.1527 45.4185 -9.23128 1.48941 -0.553508 7.53672 -89.3974 11.8037 -0.817385 1.28821 0.132336 -0.759928 1.32293 -22.4016 -1.16675 0.983021 -2.38895 -1.16675 0.98302 91.5555 -55.9404 -97.2951 -16.2334 18.4792 -13.3931 -26.2126 19.1474 -38.4659 -9.16072 -1.46067 -2.63554 -97.3426 -49.5536 67.7203 11.6071 15.5146 -79.937 13.4045 6.74803 -94.6068 13.2998 1.4376 -0.0134876 -25.0678 -20.865 -16.171 1.70876 -23.3316 -18.8071 
119.544 85.1146 43.1083 91.0041 3.42194 89.8072 -171.529 19.9297 114.049 -28.6711 3.92075 2.13945 61.9427 -1.13475 -17.7075 41.4972 16.1948 -2.65701 166.892 33.2466 88.4409 -58.9814 -0.8048 1.57207 67.2406 -6.53998 -10.7387 47.4237 -10.5167 3.60853 -0.520939 7.57151 -89.3803 11.7336 -0.745097 1.31382 0.0621703 -0.686585 1.34533 -22.4711 -1.1055 1.02919 -2.45848 -1.10549 1.02918 92.0674 -56.5201 -96.4586 -14.0431 20.6154 -13.64 -26.8869 18.4403 -39.5244 -8.57895 -1.32685 -2.77514 -98.2887 -50.4216 66.633 11.9593 16.2643 -79.8299 15.4001 5.38745 -95.601 13.5764 1.43581 0.539719 -24.1595 -21.6238 -16.3728 0.76668 -23.831 -19.2704 
119.454 84.7466 42.9601 91.1945 3.34816 90.1345 -171.221 21.0721 114.627 -30.4702 5.76022 1.80613 62.3147 -0.520242 -15.3282 42.5641 17.6089 -3.69169 165.545 33.3905 88.3757 -59.7004 -1.3316 2.19277 68.3617 -7.74449 -10.1936 46.7624 -10.2458 3.8777 -0.428718 7.5446 -89.2883 11.7862 -0.518103 1.47362 0.11451 -0.45276 1.49498 -22.4163 -0.936994 1.24984 -2.40369 -0.936987 1.24983 91.9853 -59.0677 -96.1486 -14.4163 21.8823 -13.1625 -25.5237 20.2472 -40.7346 -7.45653 -1.09647 -3.34758 -99.2864 -50.5803 65.2459 10.9713 16.1445 -78.9217 15.129 5.84943 -97.0692 12.051 1.04512 2.29112 -25.4907 -21.4144 -18.5855 1.84473 -24.1348 -18.3528 
119.663 84.6485 42.5556 91.7191 2.69716 90.4909 -170.549 21.3141 115.091 -31.964 5.72366 1.59671 62.7765 0.020364 -14.5625 43.5878 18.9251 -4.77688 164.763 32.7321 88.1024 -59.8746 -1.9212 2.5119 68.8995 -8.37954 -9.04789 46.6963 -10.1835 3.65845 -0.456036 7.53959 -89.25 11.7961 -0.554408 1.55416 0.124327 -0.485437 1.57703 -22.4061 -0.995821 1.31575 -2.39342 -0.995817 1.31575 91.3165 -60.2613 -96.8669 -13.9548 21.6236 -14.2508 -25.8183 20.5017 -40.1063 -7.25365 -1.0743 -3.74205 -99.4903 -50.8884 65.0613 9.95285 15.9914 -77.7385 15.7465 5.8909 -97.2586 11.1379 1.03884 0.876533 -25.721 -20.9365 -17.9195 1.63442 -23.6221 -18.4074 
119.949 84.7024 41.982 92.3829 1.61225 90.9409 -169.535 20.8106 115.487 -32.8673 5.971 1.34577 63.4982 1.08822 -13.6571 43.8235 19.3725 -5.68053 164.637 31.92 87.9081 -59.6355 -1.36277 2.56585 69.2359 -8.60645 -7.73839 46.7454 -10.2589 4.02003 -0.404976 7.52705 -89.2912 11.8207 -0.471979 1.46342 0.149038 -0.407143 1.48277 -22.3816 -0.889976 1.25396 -2.36899 -0.889963 1.25397 91.0463 -60.6326 -97.1716 -13.5479 21.5108 -14.5909 -26.0904 19.9344 -40.3178 -7.22143 -1.07222 -3.81714 -99.8266 -51.2112 64.6945 8.85888 16.0118 -76.9718 15.3409 6.98605 -97.3348 12.2091 1.18901 1.02744 -26.0092 -20.654 -17.0151 1.49164 -23.311 -18.6168 
